<svg width="20" height="20" viewBox="0 0 20 20" fill="none" xmlns="http://www.w3.org/2000/svg">
<path fill-rule="evenodd" clip-rule="evenodd" d="M6 2C3.79086 2 2 3.79086 2 6V14C2 16.2091 3.79086 18 6 18H14C16.2091 18 18 16.2091 18 14V6C18 3.79086 16.2091 2 14 2H6ZM11 7C11 6.44772 10.5523 6 10 6C9.44772 6 9 6.44772 9 7V9H7C6.44772 9 6 9.44772 6 10C6 10.5523 6.44772 11 7 11H9V13C9 13.5523 9.44772 14 10 14C10.5523 14 11 13.5523 11 13V11H13C13.5523 11 14 10.5523 14 10C14 9.44772 13.5523 9 13 9H11V7Z" fill="#8F8F8F"/>
</svg>
