<svg width="15" height="15" viewBox="0 0 15 15" fill="none" xmlns="http://www.w3.org/2000/svg">
<g clip-path="url(#clip0_106_19)">
<path fill-rule="evenodd" clip-rule="evenodd" d="M3.89949 11.5C3.89949 11.7209 3.7204 11.9 3.49949 11.9C3.27857 11.9 3.09949 11.7209 3.09949 11.5V4.46566L1.78233 5.78282C1.62612 5.93903 1.37285 5.93903 1.21664 5.78282C1.06043 5.62661 1.06043 5.37334 1.21664 5.21713L3.21664 3.21713C3.29166 3.14212 3.3934 3.09998 3.49949 3.09998C3.60557 3.09998 3.70732 3.14212 3.78233 3.21713L5.78233 5.21713C5.93854 5.37334 5.93854 5.62661 5.78233 5.78282C5.62612 5.93903 5.37285 5.93903 5.21664 5.78282L3.89949 4.46566V11.5ZM8.49998 3.99998C8.22383 3.99998 7.99998 4.22383 7.99998 4.49998C7.99998 4.77612 8.22383 4.99998 8.49998 4.99998H14.5C14.7761 4.99998 15 4.77612 15 4.49998C15 4.22383 14.7761 3.99998 14.5 3.99998H8.49998ZM8.49998 6.99998C8.22383 6.99998 7.99998 7.22383 7.99998 7.49998C7.99998 7.77612 8.22383 7.99998 8.49998 7.99998H14.5C14.7761 7.99998 15 7.77612 15 7.49998C15 7.22383 14.7761 6.99998 14.5 6.99998H8.49998ZM7.99998 10.5C7.99998 10.2238 8.22383 9.99998 8.49998 9.99998H14.5C14.7761 9.99998 15 10.2238 15 10.5C15 10.7761 14.7761 11 14.5 11H8.49998C8.22383 11 7.99998 10.7761 7.99998 10.5Z" fill="black"/>
</g>
<defs>
<clipPath id="clip0_106_19">
<rect width="15" height="15" fill="white"/>
</clipPath>
</defs>
</svg>
