<svg width="22" height="22" viewBox="0 0 22 22" fill="none" xmlns="http://www.w3.org/2000/svg">
<path d="M2 6.125C2 5.50368 2.50368 5 3.125 5H8V7.25H3.125C2.50368 7.25 2 6.74632 2 6.125V6.125Z" fill="#949494"/>
<path d="M20 6.125C20 5.50368 19.4963 5 18.875 5H14V7.25H18.875C19.4963 7.25 20 6.74632 20 6.125V6.125Z" fill="#949494"/>
<path d="M12.125 5C12.125 4.37868 11.6213 3.875 11 3.875C10.3787 3.875 9.875 4.37868 9.875 5H12.125ZM11 17L10.2045 17.7955C10.6438 18.2348 11.3562 18.2348 11.7955 17.7955L11 17ZM8.7955 13.2045C8.35616 12.7652 7.64384 12.7652 7.2045 13.2045C6.76517 13.6438 6.76517 14.3562 7.2045 14.7955L8.7955 13.2045ZM14.7955 14.7955C15.2348 14.3562 15.2348 13.6438 14.7955 13.2045C14.3562 12.7652 13.6438 12.7652 13.2045 13.2045L14.7955 14.7955ZM9.875 5V17H12.125V5H9.875ZM11.7955 16.2045L8.7955 13.2045L7.2045 14.7955L10.2045 17.7955L11.7955 16.2045ZM11.7955 17.7955L14.7955 14.7955L13.2045 13.2045L10.2045 16.2045L11.7955 17.7955Z" fill="#949494"/>
</svg>
