<svg width="22" height="22" viewBox="0 0 22 22" fill="none" xmlns="http://www.w3.org/2000/svg">
<path d="M20 15.875C20 16.4963 19.4963 17 18.875 17H14V14.75H18.875C19.4963 14.75 20 15.2537 20 15.875V15.875Z" fill="#949494"/>
<path d="M2 15.825C2 16.4739 2.52607 17 3.175 17H8V14.65H3.175C2.52607 14.65 2 15.1761 2 15.825V15.825Z" fill="#949494"/>
<path d="M9.875 17C9.875 17.6213 10.3787 18.125 11 18.125C11.6213 18.125 12.125 17.6213 12.125 17H9.875ZM11 5L11.7955 4.2045C11.3562 3.76517 10.6438 3.76517 10.2045 4.2045L11 5ZM13.2045 8.7955C13.6438 9.23483 14.3562 9.23483 14.7955 8.7955C15.2348 8.35616 15.2348 7.64384 14.7955 7.2045L13.2045 8.7955ZM7.2045 7.2045C6.76517 7.64384 6.76517 8.35616 7.2045 8.7955C7.64384 9.23483 8.35616 9.23483 8.7955 8.7955L7.2045 7.2045ZM12.125 17L12.125 5H9.875L9.875 17H12.125ZM10.2045 5.7955L13.2045 8.7955L14.7955 7.2045L11.7955 4.2045L10.2045 5.7955ZM10.2045 4.2045L7.2045 7.2045L8.7955 8.7955L11.7955 5.7955L10.2045 4.2045Z" fill="#949494"/>
</svg>
