<svg width="15" height="15" viewBox="0 0 15 15" fill="none" xmlns="http://www.w3.org/2000/svg">
<g clip-path="url(#clip0_107_21)">
<path fill-rule="evenodd" clip-rule="evenodd" d="M3.89949 3.50002C3.89949 3.27911 3.7204 3.10003 3.49949 3.10003C3.27857 3.10003 3.09949 3.27911 3.09949 3.50002V10.5343L1.78233 9.2172C1.62612 9.061 1.37285 9.061 1.21664 9.2172C1.06043 9.3734 1.06043 9.6267 1.21664 9.7829L3.21664 11.7829C3.29166 11.8579 3.3934 11.9 3.49949 11.9C3.60557 11.9 3.70732 11.8579 3.78233 11.7829L5.78233 9.7829C5.93854 9.6267 5.93854 9.3734 5.78233 9.2172C5.62612 9.061 5.37285 9.061 5.21664 9.2172L3.89949 10.5343V3.50002ZM8.49998 11C8.22383 11 7.99998 10.7762 7.99998 10.5C7.99998 10.2239 8.22383 10 8.49998 10H14.5C14.7761 10 15 10.2239 15 10.5C15 10.7762 14.7761 11 14.5 11H8.49998ZM8.49998 8C8.22383 8 7.99998 7.77617 7.99998 7.50002C7.99998 7.22388 8.22383 7.00002 8.49998 7.00002H14.5C14.7761 7.00002 15 7.22388 15 7.50002C15 7.77617 14.7761 8 14.5 8H8.49998ZM7.99998 4.50002C7.99998 4.77617 8.22383 5.00002 8.49998 5.00002H14.5C14.7761 5.00002 15 4.77617 15 4.50002C15 4.22388 14.7761 4.00002 14.5 4.00002H8.49998C8.22383 4.00002 7.99998 4.22388 7.99998 4.50002Z" fill="black"/>
</g>
<defs>
<clipPath id="clip0_107_21">
<rect width="15" height="15" fill="white"/>
</clipPath>
</defs>
</svg>
