<svg width="24" height="24" viewBox="0 0 24 24" fill="none" xmlns="http://www.w3.org/2000/svg">
<path fill-rule="evenodd" clip-rule="evenodd" d="M9 15.5H4C3.44772 15.5 3 15.9477 3 16.5C3 17.0523 3.44772 17.5 4 17.5L9 17.5V15.5ZM15 17.5H20C20.5523 17.5 21 17.0523 21 16.5C21 15.9477 20.5523 15.5 20 15.5H15V17.5Z" fill="#8F8F8F"/>
<path d="M11 19C11 19.5523 11.4477 20 12 20C12.5523 20 13 19.5523 13 19H11ZM12 7L12.7071 6.29289C12.3166 5.90237 11.6834 5.90237 11.2929 6.29289L12 7ZM14.2929 10.7071C14.6834 11.0976 15.3166 11.0976 15.7071 10.7071C16.0976 10.3166 16.0976 9.68342 15.7071 9.29289L14.2929 10.7071ZM8.29289 9.29289C7.90237 9.68342 7.90237 10.3166 8.29289 10.7071C8.68342 11.0976 9.31658 11.0976 9.70711 10.7071L8.29289 9.29289ZM13 19L13 7H11L11 19H13ZM11.2929 7.70711L14.2929 10.7071L15.7071 9.29289L12.7071 6.29289L11.2929 7.70711ZM11.2929 6.29289L8.29289 9.29289L9.70711 10.7071L12.7071 7.70711L11.2929 6.29289Z" fill="#8F8F8F"/>
</svg>
