<svg width="24" height="24" viewBox="0 0 24 24" fill="none" xmlns="http://www.w3.org/2000/svg">
<path fill-rule="evenodd" clip-rule="evenodd" d="M8 4C5.79086 4 4 5.79086 4 8V16C4 18.2091 5.79086 20 8 20H16C18.2091 20 20 18.2091 20 16V8C20 5.79086 18.2091 4 16 4H8ZM16.4343 10.8305C16.8929 10.3145 16.8464 9.52439 16.3305 9.06574C15.8145 8.60709 15.0244 8.65357 14.5657 9.16955L11.4465 12.6787L9.88388 11.1161C9.39573 10.628 8.60427 10.628 8.11612 11.1161C7.62796 11.6043 7.62796 12.3957 8.11612 12.8839L10.6161 15.3839C10.8595 15.6273 11.1926 15.7596 11.5367 15.7495C11.8808 15.7393 12.2055 15.5878 12.4343 15.3305L16.4343 10.8305Z" fill="#4AB393"/>
</svg>
