<svg width="24" height="24" viewBox="0 0 24 24" fill="none" xmlns="http://www.w3.org/2000/svg">
<path d="M3 7.25C3 6.55964 3.55964 6 4.25 6H8.25V8.5H4.25C3.55964 8.5 3 7.94036 3 7.25V7.25Z" fill="#949494"/>
<path d="M21 7.25C21 6.55964 20.4404 6 19.75 6H15.75V8.5H19.75C20.4404 8.5 21 7.94036 21 7.25V7.25Z" fill="#949494"/>
<path d="M13.25 6C13.25 5.30964 12.6904 4.75 12 4.75C11.3096 4.75 10.75 5.30964 10.75 6H13.25ZM12 18L11.1161 18.8839C11.6043 19.372 12.3957 19.372 12.8839 18.8839L12 18ZM9.88388 14.1161C9.39573 13.628 8.60427 13.628 8.11612 14.1161C7.62796 14.6043 7.62796 15.3957 8.11612 15.8839L9.88388 14.1161ZM15.8839 15.8839C16.372 15.3957 16.372 14.6043 15.8839 14.1161C15.3957 13.628 14.6043 13.628 14.1161 14.1161L15.8839 15.8839ZM10.75 6V18H13.25V6H10.75ZM12.8839 17.1161L9.88388 14.1161L8.11612 15.8839L11.1161 18.8839L12.8839 17.1161ZM12.8839 18.8839L15.8839 15.8839L14.1161 14.1161L11.1161 17.1161L12.8839 18.8839Z" fill="#949494"/>
</svg>
