<svg width="24" height="24" viewBox="0 0 24 24" fill="none" xmlns="http://www.w3.org/2000/svg">
<path fill-rule="evenodd" clip-rule="evenodd" d="M15 8H20C20.5523 8 21 7.55228 21 7C21 6.44772 20.5523 6 20 6H15V8ZM9 6H4C3.44772 6 3 6.44772 3 7C3 7.55228 3.44772 8 4 8H9V6Z" fill="#8F8F8F"/>
<path d="M13 6C13 5.44772 12.5523 5 12 5C11.4477 5 11 5.44772 11 6H13ZM12 18L11.2929 18.7071C11.6834 19.0976 12.3166 19.0976 12.7071 18.7071L12 18ZM9.70711 14.2929C9.31658 13.9024 8.68342 13.9024 8.29289 14.2929C7.90237 14.6834 7.90237 15.3166 8.29289 15.7071L9.70711 14.2929ZM15.7071 15.7071C16.0976 15.3166 16.0976 14.6834 15.7071 14.2929C15.3166 13.9024 14.6834 13.9024 14.2929 14.2929L15.7071 15.7071ZM11 6V18H13V6H11ZM12.7071 17.2929L9.70711 14.2929L8.29289 15.7071L11.2929 18.7071L12.7071 17.2929ZM12.7071 18.7071L15.7071 15.7071L14.2929 14.2929L11.2929 17.2929L12.7071 18.7071Z" fill="#8F8F8F"/>
</svg>
