<svg width="24" height="24" viewBox="0 0 24 24" fill="none" xmlns="http://www.w3.org/2000/svg">
<path fill-rule="evenodd" clip-rule="evenodd" d="M9 15.5H4C3.44772 15.5 3 15.9477 3 16.5C3 17.0523 3.44772 17.5 4 17.5L9 17.5V15.5ZM15 17.5H20C20.5523 17.5 21 17.0523 21 16.5C21 15.9477 20.5523 15.5 20 15.5H15V17.5Z" fill="#8F8F8F"/>
<path d="M11 18C11 18.5523 11.4477 19 12 19C12.5523 19 13 18.5523 13 18H11ZM12 6L12.7071 5.29289C12.3166 4.90237 11.6834 4.90237 11.2929 5.29289L12 6ZM14.2929 9.70711C14.6834 10.0976 15.3166 10.0976 15.7071 9.70711C16.0976 9.31658 16.0976 8.68342 15.7071 8.29289L14.2929 9.70711ZM8.29289 8.29289C7.90237 8.68342 7.90237 9.31658 8.29289 9.70711C8.68342 10.0976 9.31658 10.0976 9.70711 9.70711L8.29289 8.29289ZM13 18L13 6H11L11 18H13ZM11.2929 6.70711L14.2929 9.70711L15.7071 8.29289L12.7071 5.29289L11.2929 6.70711ZM11.2929 5.29289L8.29289 8.29289L9.70711 9.70711L12.7071 6.70711L11.2929 5.29289Z" fill="#8F8F8F"/>
</svg>
