<svg width="24" height="24" viewBox="0 0 24 24" fill="none" xmlns="http://www.w3.org/2000/svg">
<path d="M21 16.75C21 17.4404 20.4404 18 19.75 18H15.75V15.5H19.75C20.4404 15.5 21 16.0596 21 16.75V16.75Z" fill="#949494"/>
<path d="M3 16.75C3 17.4404 3.55964 18 4.25 18H8.25V15.5H4.25C3.55964 15.5 3 16.0596 3 16.75V16.75Z" fill="#949494"/>
<path d="M10.75 18C10.75 18.6904 11.3096 19.25 12 19.25C12.6904 19.25 13.25 18.6904 13.25 18H10.75ZM12 6L12.8839 5.11612C12.3957 4.62796 11.6043 4.62796 11.1161 5.11612L12 6ZM14.1161 9.88388C14.6043 10.372 15.3957 10.372 15.8839 9.88388C16.372 9.39573 16.372 8.60427 15.8839 8.11612L14.1161 9.88388ZM8.11612 8.11612C7.62796 8.60427 7.62796 9.39573 8.11612 9.88388C8.60427 10.372 9.39573 10.372 9.88388 9.88388L8.11612 8.11612ZM13.25 18L13.25 6H10.75L10.75 18H13.25ZM11.1161 6.88388L14.1161 9.88388L15.8839 8.11612L12.8839 5.11612L11.1161 6.88388ZM11.1161 5.11612L8.11612 8.11612L9.88388 9.88388L12.8839 6.88388L11.1161 5.11612Z" fill="#949494"/>
</svg>
