<svg width="24" height="24" viewBox="0 0 24 24" fill="none" xmlns="http://www.w3.org/2000/svg">
<path fill-rule="evenodd" clip-rule="evenodd" d="M12 7C12.4602 7 12.8333 7.3731 12.8333 7.83333V11.1667H16.1667C16.6269 11.1667 17 11.5398 17 12C17 12.4602 16.6269 12.8333 16.1667 12.8333H12.8333V16.1667C12.8333 16.6269 12.4602 17 12 17C11.5398 17 11.1667 16.6269 11.1667 16.1667V12.8333H7.83333C7.3731 12.8333 7 12.4602 7 12C7 11.5398 7.3731 11.1667 7.83333 11.1667H11.1667V7.83333C11.1667 7.3731 11.5398 7 12 7Z" fill="#949494"/>
</svg>
